HIERARCHY
ROOT Hips
{
  OFFSET 5.84602e-005 68.8428 3.50346
  CHANNELS 6 Xposition Yposition Zposition Zrotation Xrotation Yrotation
  JOINT Spine
  {
    OFFSET 0 8.597 -4.6522
    CHANNELS 3 Zrotation Xrotation Yrotation
    JOINT Spine1
    {
      OFFSET 0 7.8454 0.4098
      CHANNELS 3 Zrotation Xrotation Yrotation
      JOINT Spine2
      {
        OFFSET 0 9.7078 -2.1609
        CHANNELS 3 Zrotation Xrotation Yrotation
        JOINT Neck
        {
          OFFSET 0 21.8761 -0.4549
          CHANNELS 3 Zrotation Xrotation Yrotation
          JOINT Head
          {
            OFFSET 0 12.3537 3.3602
            CHANNELS 3 Zrotation Xrotation Yrotation
            End Site
            {
              OFFSET 0.0001 18.9506 0.5657
            }
          }
        }
        JOINT LeftShoulder
        {
          OFFSET 2.2086 21.1115 7.2329
          CHANNELS 3 Zrotation Xrotation Yrotation
          JOINT LeftArm
          {
            OFFSET 13.1193 3.0282 -4.8998
            CHANNELS 3 Zrotation Xrotation Yrotation
            JOINT LeftForeArm
            {
              OFFSET 27.4081 -0.0973053 -0.2375
              CHANNELS 3 Zrotation Xrotation Yrotation
              JOINT LeftHand
              {
                OFFSET 22.8641 0.0662994 -0.1369
                CHANNELS 3 Zrotation Xrotation Yrotation
                JOINT LeftHandIndex1
                {
                  OFFSET 8.8614 0.775009 2.4612
                  CHANNELS 3 Zrotation Xrotation Yrotation
                  JOINT LeftHandIndex2
                  {
                    OFFSET 3.3146 -0.808304 0.5841
                    CHANNELS 3 Zrotation Xrotation Yrotation
                    JOINT LeftHandIndex3
                    {
                      OFFSET 2.2628 -0.552002 0.3989
                      CHANNELS 3 Zrotation Xrotation Yrotation
                      End Site
                      {
                        OFFSET 1.6102 -0.4807 0.2612
                      }
                    }
                  }
                }
                JOINT LeftHandMiddle1
                {
                  OFFSET 8.9937 0.895004 0.2143
                  CHANNELS 3 Zrotation Xrotation Yrotation
                  JOINT LeftHandMiddle2
                  {
                    OFFSET 4.0984 0.0113983 -0.0242
                    CHANNELS 3 Zrotation Xrotation Yrotation
                    JOINT LeftHandMiddle3
                    {
                      OFFSET 2.2716 0.00689697 -0.0138001
                      CHANNELS 3 Zrotation Xrotation Yrotation
                      End Site
                      {
                        OFFSET 2.0404 -0.1441 0.0027
                      }
                    }
                  }
                }
                JOINT LeftHandRing1
                {
                  OFFSET 8.5234 0.597198 -2.0164
                  CHANNELS 3 Zrotation Xrotation Yrotation
                  JOINT LeftHandRing2
                  {
                    OFFSET 3.7188 -0.188293 -0.2328
                    CHANNELS 3 Zrotation Xrotation Yrotation
                    JOINT LeftHandRing3
                    {
                      OFFSET 2.1191 -0.106598 -0.1332
                      CHANNELS 3 Zrotation Xrotation Yrotation
                      End Site
                      {
                        OFFSET 1.8737 -0.2304 -0.0886
                      }
                    }
                  }
                }
                JOINT LeftHandPinky1
                {
                  OFFSET 7.9094 -0.601089 -3.4825
                  CHANNELS 3 Zrotation Xrotation Yrotation
                  JOINT LeftHandPinky2
                  {
                    OFFSET 2.2874 -0.477005 -0.6314
                    CHANNELS 3 Zrotation Xrotation Yrotation
                    JOINT LeftHandPinky3
                    {
                      OFFSET 1.6774 -0.349396 -0.4633
                      CHANNELS 3 Zrotation Xrotation Yrotation
                      End Site
                      {
                        OFFSET 1.4888 -0.4091 -0.3416
                      }
                    }
                  }
                }
                JOINT LeftHandThumb1
                {
                  OFFSET 1.833 -1.3875 1.3896
                  CHANNELS 3 Zrotation Xrotation Yrotation
                  JOINT LeftHandThumb2
                  {
                    OFFSET 3.4129 -1.121 2.5732
                    CHANNELS 3 Zrotation Xrotation Yrotation
                    JOINT LeftHandThumb3
                    {
                      OFFSET 2.2474 -0.804199 1.6192
                      CHANNELS 3 Zrotation Xrotation Yrotation
                      End Site
                      {
                        OFFSET 1.6527 -0.5689 1.1317
                      }
                    }
                  }
                }
              }
            }
          }
        }
        JOINT RightShoulder
        {
          OFFSET -2.2086 21.1115 7.2329
          CHANNELS 3 Zrotation Xrotation Yrotation
          JOINT RightArm
          {
            OFFSET -13.1216 3.0287 -4.9007
            CHANNELS 3 Zrotation Xrotation Yrotation
            JOINT RightForeArm
            {
              OFFSET -27.4081 -0.0973053 -0.2375
              CHANNELS 3 Zrotation Xrotation Yrotation
              JOINT RightHand
              {
                OFFSET -22.8641 0.0664063 -0.1369
                CHANNELS 3 Zrotation Xrotation Yrotation
                JOINT RightHandIndex1
                {
                  OFFSET -8.8614 0.774994 2.4612
                  CHANNELS 3 Zrotation Xrotation Yrotation
                  JOINT RightHandIndex2
                  {
                    OFFSET -3.3146 -0.808304 0.5841
                    CHANNELS 3 Zrotation Xrotation Yrotation
                    JOINT RightHandIndex3
                    {
                      OFFSET -2.2628 -0.552002 0.3989
                      CHANNELS 3 Zrotation Xrotation Yrotation
                      End Site
                      {
                        OFFSET -1.6102 -0.4807 0.2612
                      }
                    }
                  }
                }
                JOINT RightHandMiddle1
                {
                  OFFSET -8.9937 0.894989 0.2143
                  CHANNELS 3 Zrotation Xrotation Yrotation
                  JOINT RightHandMiddle2
                  {
                    OFFSET -4.0984 0.0113983 -0.0242
                    CHANNELS 3 Zrotation Xrotation Yrotation
                    JOINT RightHandMiddle3
                    {
                      OFFSET -2.2716 0.00691223 -0.0138001
                      CHANNELS 3 Zrotation Xrotation Yrotation
                      End Site
                      {
                        OFFSET -2.0404 -0.1441 0.0027
                      }
                    }
                  }
                }
                JOINT RightHandRing1
                {
                  OFFSET -8.5234 0.597198 -2.0164
                  CHANNELS 3 Zrotation Xrotation Yrotation
                  JOINT RightHandRing2
                  {
                    OFFSET -3.7188 -0.188309 -0.2328
                    CHANNELS 3 Zrotation Xrotation Yrotation
                    JOINT RightHandRing3
                    {
                      OFFSET -2.1191 -0.106598 -0.1332
                      CHANNELS 3 Zrotation Xrotation Yrotation
                      End Site
                      {
                        OFFSET -1.8737 -0.2304 -0.0886
                      }
                    }
                  }
                }
                JOINT RightHandPinky1
                {
                  OFFSET -7.9094 -0.601105 -3.4825
                  CHANNELS 3 Zrotation Xrotation Yrotation
                  JOINT RightHandPinky2
                  {
                    OFFSET -2.2874 -0.477005 -0.6314
                    CHANNELS 3 Zrotation Xrotation Yrotation
                    JOINT RightHandPinky3
                    {
                      OFFSET -1.6774 -0.349396 -0.4633
                      CHANNELS 3 Zrotation Xrotation Yrotation
                      End Site
                      {
                        OFFSET -1.4888 -0.4091 -0.3416
                      }
                    }
                  }
                }
                JOINT RightHandThumb1
                {
                  OFFSET -1.833 -1.38751 1.3896
                  CHANNELS 3 Zrotation Xrotation Yrotation
                  JOINT RightHandThumb2
                  {
                    OFFSET -3.41299 -1.12099 2.5732
                    CHANNELS 3 Zrotation Xrotation Yrotation
                    JOINT RightHandThumb3
                    {
                      OFFSET -2.24741 -0.804108 1.6192
                      CHANNELS 3 Zrotation Xrotation Yrotation
                      End Site
                      {
                        OFFSET -1.6527 -0.5689 1.1317
                      }
                    }
                  }
                }
              }
            }
          }
        }
      }
    }
  }
  JOINT RightUpLeg
  {
    OFFSET -9.1966 3.8861 -0.7581
    CHANNELS 3 Zrotation Xrotation Yrotation
    JOINT RightLeg
    {
      OFFSET -0.7359 -41.0265 0
      CHANNELS 3 Zrotation Xrotation Yrotation
      JOINT RightFoot
      {
        OFFSET 0 -40.2855 0
        CHANNELS 3 Zrotation Xrotation Yrotation
        JOINT RightToeBase
        {
          OFFSET 0 -5.6122 11.7359
          CHANNELS 3 Zrotation Xrotation Yrotation
          End Site
          {
            OFFSET 0 0 7.8731
          }
        }
      }
    }
  }
  JOINT LeftUpLeg
  {
    OFFSET 9.1965 3.8864 -0.7581
    CHANNELS 3 Zrotation Xrotation Yrotation
    JOINT LeftLeg
    {
      OFFSET 0.7359 -41.0268 0
      CHANNELS 3 Zrotation Xrotation Yrotation
      JOINT LeftFoot
      {
        OFFSET 0 -40.2855 0
        CHANNELS 3 Zrotation Xrotation Yrotation
        JOINT LeftToeBase
        {
          OFFSET 0 -5.6122 11.7359
          CHANNELS 3 Zrotation Xrotation Yrotation
          End Site
          {
            OFFSET 0 0 7.8731
          }
        }
      }
    }
  }
}
MOTION
Frames:	5
Frame Time:	0.0333333
5.84602e-005 68.8428 3.50346 0 0 -0 0 0 -0 0 0 -0 0 0 -0 0 0 -0 0 0 -0 0 0 -0 0 0 -0 0 0 -0 0 0 -0 0 0 -0 0 0 -0 0 0 -0 0 0 -0 -0.0146107 -8.87603e-005 -2.63497e-007 2.99804e-018 -2.42657e-020 -1.42182e-022 0 0 -0 -0.0187562 -0.001176 5.858e-005 5.06224e-018 3.88251e-019 1.21329e-020 0 0 -0 -0.012269 -0.00324817 0.000675346 -1.74678e-018 3.88251e-019 -0 0 0 -0 0 0 -0 0 0 -0 0 0 -0 0 0 -0 0 0 -0 0 0 -0 0 0 -0 0 0 -0 0 0 -0 0 0 -0 0.0149955 -9.10982e-005 2.64101e-007 -9.69331e-018 1.21329e-020 -4.7394e-023 0 0 -0 0.0189956 -0.00119102 -5.96516e-005 -5.41541e-019 0 2.42657e-020 0 0 -0 0.0122698 -0.00324857 -0.000673756 -2.00796e-019 0 -1.94126e-019 0 0 -0 0 0 -0 0 0 -0 3.39842 1.33031 -0.0637918 -5.65207e-008 0.834868 -0.000436188 -3.39935 -2.16518 -0.0642563 -8.89002e-024 -1.18485e-023 -1.48106e-024 -3.39844 1.35642 0.0640283 -3.18788e-007 0.782166 -0.000588827 3.39931 -2.13858 0.0634662 1.1399e-023 0 -0 
-0.013438 24.7768 -56.3812 -0 -63.0022 -0 0 12.9987 -0 0 25.9973 -0 0 25.9973 -0 0 0.000395356 -0 0.000829395 0.274519 -0.173106 -0 -5.97551e-006 -0 -76.2594 -15.4382 -15.5796 10.4907 17.8166 -45.5345 0.577608 29.9949 -1.15528 3.18055e-015 4.77083e-015 9.54166e-015 4.77083e-015 -3.18055e-015 -0 4.77083e-015 -1.59028e-015 -0 3.18055e-015 4.77083e-015 9.54166e-015 -0.0146202 -8.88448e-005 1.25113e-005 3.17331e-006 1.30662e-006 1.78837e-006 3.18055e-015 4.77083e-015 9.54166e-015 -0.01879 -0.00117897 5.1125e-005 -7.95139e-015 7.95139e-015 -0 3.18055e-015 4.77083e-015 9.54166e-015 -0.0122366 -0.00323966 0.000682649 3.1736e-006 1.30633e-006 1.78832e-006 3.18055e-015 4.77083e-015 9.54166e-015 4.77083e-015 -3.18055e-015 -0 4.77083e-015 -1.59028e-015 -0 -0 -5.97551e-006 -0 62.7946 26.7018 29.3862 -2.35258 -4.41513 61.9055 65.996 -1.9943e-006 -1.14756e-005 0 0 -1.05449e-015 -7.38165e-033 1.98785e-016 2.12762e-015 1.98785e-016 0 2.12296e-015 0 0 -1.05449e-015 0.0149621 -8.8217e-005 2.47769e-007 5.96354e-016 -9.93923e-017 -1.4474e-015 0 0 -1.05449e-015 0.0189567 -0.00119348 -5.62527e-005 1.98785e-016 0 -2.00338e-016 0 0 -1.05449e-015 0.0122524 -0.00324551 -0.000681871 3.97569e-016 -9.93923e-017 -3.02681e-015 0 0 -1.05449e-015 -7.38165e-033 1.98785e-016 2.12762e-015 1.98785e-016 0 2.12296e-015 -9.07976 -29.5854 14.4351 0.0228601 75.5218 -2.05719 -3.26374 16.576 -0.881116 1.85763e-008 -1.69482e-007 -3.17202e-008 9.20829 -29.3406 -17.3673 -0.0201488 75.1295 1.91899 2.32778 10.8814 1.17338 -7.45443e-015 0 -6.36111e-015 
-0.0134415 24.7769 -56.3812 -0 -63.0022 -0 0 12.9987 -0 0 25.9973 -0 0 25.9973 -0 0 0.000636629 -0 0.000829396 0.27452 -0.173106 -0 -8.32304e-006 -0 -76.2594 -15.4382 -15.5796 10.4908 17.8166 -45.5346 0.577606 29.9949 -1.15529 2.18619e-007 -3.37722e-007 -1.41843e-007 3.18055e-015 1.11319e-014 -3.18055e-015 2.18619e-007 -3.37722e-007 -1.41843e-007 2.18619e-007 -3.37722e-007 -1.41843e-007 -0.0146038 -9.06311e-005 8.30119e-006 2.18621e-007 -3.37704e-007 -1.41886e-007 2.18619e-007 -3.37722e-007 -1.41843e-007 -0.0187608 -0.00117716 5.68656e-005 3.39154e-006 9.68757e-007 1.64649e-006 2.18619e-007 -3.37722e-007 -1.41843e-007 -0.012214 -0.00323316 0.000679329 2.18615e-007 -3.37708e-007 -1.41885e-007 2.18619e-007 -3.37722e-007 -1.41843e-007 3.18055e-015 1.11319e-014 -3.18055e-015 2.18619e-007 -3.37722e-007 -1.41843e-007 -0 -8.32304e-006 -0 62.7945 26.7018 29.3862 -2.26977 -4.45839 62.977 65.996 3.09831e-006 9.33002e-006 -5.96354e-016 -4.96962e-017 -1.4971e-015 -5.96354e-016 -9.93923e-017 -1.5002e-015 -1.98785e-016 -1.98785e-016 -7.85976e-015 -5.96354e-016 -4.96962e-017 -1.4971e-015 0.0150388 -9.18908e-005 3.21254e-007 -1.98785e-016 -2.98177e-016 2.50966e-015 -5.96354e-016 -4.96962e-017 -1.4971e-015 0.0189835 -0.00119557 -5.99965e-005 -1.21189e-007 3.26811e-008 1.73261e-007 -5.96354e-016 -4.96962e-017 -1.4971e-015 0.0122818 -0.00325114 -0.000680097 1.98785e-016 4.96962e-017 -7.25875e-015 -5.96354e-016 -4.96962e-017 -1.4971e-015 -5.96354e-016 -9.93923e-017 -1.5002e-015 -1.98785e-016 -1.98785e-016 -7.85976e-015 -9.05567 -29.5732 14.4302 0.0221888 75.4934 -2.63552 -3.24004 16.5619 -0.890177 -1.39654e-008 1.222e-007 2.26574e-008 9.18682 -29.3261 -17.362 -0.0193035 75.099 2.49709 2.30717 10.8673 1.1809 -8.94531e-016 1.19271e-015 -0 
-0.0134425 24.7769 -56.3812 -0 -63.0022 -0 0 12.9987 -0 0 25.9973 -0 0 25.9973 -0 0 0.000637697 -0 0.000829396 0.27452 -0.173106 -0 -8.32304e-006 -0 -76.2594 -15.4382 -15.5796 10.4908 17.8166 -45.5346 0.57761 29.9949 -1.15528 2.18619e-007 -3.37722e-007 -1.41843e-007 2.18619e-007 -3.37722e-007 -1.41843e-007 2.18619e-007 -3.37722e-007 -1.41843e-007 2.18619e-007 -3.37722e-007 -1.41843e-007 -0.0145994 -8.76085e-005 1.20959e-005 3.39193e-006 9.68923e-007 1.64648e-006 2.18619e-007 -3.37722e-007 -1.41843e-007 -0.0187639 -0.00117799 5.9481e-005 2.1862e-007 -3.37699e-007 -1.419e-007 2.18619e-007 -3.37722e-007 -1.41843e-007 -0.0122037 -0.0032314 0.000661374 2.18615e-007 -3.37708e-007 -1.41885e-007 2.18619e-007 -3.37722e-007 -1.41843e-007 2.18619e-007 -3.37722e-007 -1.41843e-007 2.18619e-007 -3.37722e-007 -1.41843e-007 -0 -8.32304e-006 -0 62.7945 26.7018 29.3862 -2.18611 -4.50017 64.0497 65.996 2.89067e-006 5.89432e-006 8.98457e-008 -1.37082e-007 2.13729e-006 1.98785e-016 -1.23246e-014 2.64011e-015 -3.42706e-008 -2.24614e-008 2.35462e-006 8.98457e-008 -1.37082e-007 2.13729e-006 0.0150498 -9.66287e-005 2.25469e-006 -3.41984e-008 -2.21526e-008 2.35463e-006 8.98457e-008 -1.37082e-007 2.13729e-006 0.0189851 -0.00118935 -5.73716e-005 -3.41576e-008 -2.20769e-008 2.35463e-006 8.98457e-008 -1.37082e-007 2.13729e-006 0.0123016 -0.00324968 -0.000676239 8.88961e-008 -1.36585e-007 2.13735e-006 8.98457e-008 -1.37082e-007 2.13729e-006 1.98785e-016 -1.23246e-014 2.64011e-015 -3.42706e-008 -2.24614e-008 2.35462e-006 -9.03211 -29.5592 14.4251 0.0211603 75.4627 -3.21372 -3.21631 16.5482 -0.899179 -9.30187e-009 7.8191e-008 1.43609e-008 9.16516 -29.3131 -17.357 -0.018805 75.0696 3.07548 2.28661 10.8537 1.18838 -6.95746e-016 0 1.59028e-015 
-0.0134435 24.777 -56.3811 -0 -63.0022 -0 0 12.9987 -0 0 25.9973 -0 0 25.9973 -0 0 0.000628733 -0 0.000829396 0.27452 -0.173106 -0 -8.32304e-006 -0 -76.2594 -15.4382 -15.5796 10.4908 17.8166 -45.5346 0.577614 29.9949 -1.15528 3.39335e-006 9.69142e-007 1.64636e-006 1.79652e-006 7.01374e-007 1.58006e-006 3.39336e-006 9.69142e-007 1.64636e-006 3.39335e-006 9.69142e-007 1.64636e-006 -0.014597 -9.13228e-005 1.05357e-005 2.18621e-007 -3.37704e-007 -1.41886e-007 3.39335e-006 9.69142e-007 1.64636e-006 -0.01877 -0.00118264 6.35096e-005 2.1862e-007 -3.37699e-007 -1.419e-007 3.39335e-006 9.69142e-007 1.64636e-006 -0.0122484 -0.00323928 0.000669299 3.39221e-006 9.6863e-007 1.64643e-006 3.39335e-006 9.69142e-007 1.64636e-006 1.79652e-006 7.01374e-007 1.58006e-006 3.39336e-006 9.69142e-007 1.64636e-006 -0 -8.32304e-006 -0 62.7945 26.7018 29.3862 -2.10157 -4.5404 65.1235 65.996 3.55492e-006 -8.88302e-007 -1.25382e-007 1.96548e-007 2.61429e-007 5.96354e-016 7.95139e-016 -2.39101e-014 9.93923e-016 3.97569e-016 -3.02898e-014 -1.25382e-007 1.96548e-007 2.61429e-007 0.0149431 -8.85979e-005 -3.44029e-007 -3.97569e-016 7.95139e-016 9.25591e-016 -1.25382e-007 1.96548e-007 2.61429e-007 0.0190209 -0.00119582 -5.63931e-005 0 0 -8.13154e-015 -1.25382e-007 1.96548e-007 2.61429e-007 0.0123341 -0.0032663 -0.000674986 -3.97569e-016 3.97569e-016 -5.14977e-015 -1.25382e-007 1.96548e-007 2.61429e-007 5.96354e-016 7.95139e-016 -2.39101e-014 9.93923e-016 3.97569e-016 -3.02898e-014 -9.00834 -29.5465 14.4203 0.020322 75.4328 -3.79213 -3.1926 16.535 -0.908123 -9.66577e-009 7.81724e-008 1.42208e-008 9.14378 -29.2994 -17.3519 -0.0181655 75.039 3.65388 2.26602 10.8405 1.1958 2.84595e-007 -7.99702e-008 7.17709e-008 
